<svg id="Layer_1" data-name="Layer 1" xmlns="http://www.w3.org/2000/svg" viewBox="0 0 722.85 198.45">
  <defs>
    <style>
      .cls-1 {
        fill: #007acc;
      }

      .cls-2 {
        fill: #fff;
      }
    </style>
  </defs>
  <title>recompost</title>
  <g>
    <path d="M41.44,164.27v32H23.73V112.8H48.06q17,0,25.19,6.2t8.17,18.82a22.17,22.17,0,0,1-4.06,13.11,26.85,26.85,0,0,1-11.48,9q18.85,28.17,24.57,36.39H70.8l-19.94-32H41.44Zm0-14.4h5.71q8.4,0,12.4-2.8t4-8.8q0-5.94-4.08-8.46t-12.65-2.51H41.44v22.57Z" transform="translate(-23.73 -25.97)"/>
    <path d="M128.5,197.46q-15.42,0-24.11-8.51t-8.68-24.11q0-16.05,8-24.82t22.19-8.77q13.54,0,21.08,7.71t7.54,21.31v8.46H113.36q0.28,7.43,4.4,11.6t11.54,4.17a47.91,47.91,0,0,0,10.91-1.2A54.55,54.55,0,0,0,151,179.47v13.48a40.87,40.87,0,0,1-9.77,3.4A61.56,61.56,0,0,1,128.5,197.46ZM126,143.65a11,11,0,0,0-8.68,3.51q-3.14,3.51-3.6,10h24.45q-0.11-6.46-3.37-10A11.41,11.41,0,0,0,126,143.65Z" transform="translate(-23.73 -25.97)"/>
    <path d="M194.66,197.46q-29.82,0-29.82-32.74,0-16.28,8.11-24.88t23.25-8.6a44.34,44.34,0,0,1,19.88,4.34l-5.14,13.48q-4.11-1.66-7.66-2.71a24.65,24.65,0,0,0-7.08-1.06q-13.6,0-13.6,19.31,0,18.74,13.6,18.74a31,31,0,0,0,9.31-1.34,33.61,33.61,0,0,0,8.57-4.2v14.91a28.07,28.07,0,0,1-8.54,3.71A48,48,0,0,1,194.66,197.46Z" transform="translate(-23.73 -25.97)"/>
    <path d="M286.92,164.27q0,15.6-8.23,24.39t-22.91,8.8a32.05,32.05,0,0,1-16.22-4,26.8,26.8,0,0,1-10.8-11.57,38.87,38.87,0,0,1-3.77-17.6q0-15.65,8.17-24.34t23-8.68a32.23,32.23,0,0,1,16.22,4,26.7,26.7,0,0,1,10.8,11.48A38.51,38.51,0,0,1,286.92,164.27Zm-44.16,0q0,9.48,3.11,14.34T256,183.47q7,0,10-4.83t3.06-14.37q0-9.48-3.08-14.22T255.9,145.3q-7,0-10.05,4.71T242.76,164.27Z" transform="translate(-23.73 -25.97)"/>
    <path d="M358.5,196.32H341.08V159q0-6.91-2.31-10.37t-7.28-3.46q-6.68,0-9.71,4.91t-3,16.17v30H301.32V132.45h13.31l2.34,8.17h1a17.71,17.71,0,0,1,7.43-6.88,24.12,24.12,0,0,1,11.14-2.48q14.34,0,19.42,9.37h1.54a17.25,17.25,0,0,1,7.57-6.91,25.25,25.25,0,0,1,11.28-2.46q10.85,0,16.42,5.57t5.57,17.85v41.65H380.84V159q0-6.91-2.31-10.37t-7.28-3.46q-6.4,0-9.57,4.57t-3.17,14.51v32Z" transform="translate(-23.73 -25.97)"/>
    <path d="M451.28,197.46q-11.26,0-17.65-8.17h-0.91q0.91,8,.91,9.25v25.88H416.2v-92h14.17l2.46,8.28h0.8q6.11-9.48,18.11-9.48,11.31,0,17.71,8.74t6.4,24.28a48,48,0,0,1-3,17.77,24.93,24.93,0,0,1-8.54,11.48A21.89,21.89,0,0,1,451.28,197.46Zm-5.14-52.27q-6.46,0-9.43,4t-3.09,13.11v1.88q0,10.28,3.06,14.74t9.68,4.46q11.71,0,11.71-19.31,0-9.43-2.89-14.14T446.14,145.19Z" transform="translate(-23.73 -25.97)"/>
    <path d="M548.28,164.27q0,15.6-8.23,24.39t-22.91,8.8a32,32,0,0,1-16.22-4,26.8,26.8,0,0,1-10.8-11.57,38.87,38.87,0,0,1-3.77-17.6q0-15.65,8.17-24.34t23-8.68a32.23,32.23,0,0,1,16.22,4,26.69,26.69,0,0,1,10.8,11.48A38.51,38.51,0,0,1,548.28,164.27Zm-44.16,0q0,9.48,3.11,14.34t10.14,4.86q7,0,10-4.83t3.06-14.37q0-9.48-3.08-14.22t-10.11-4.74q-7,0-10.05,4.71T504.12,164.27Z" transform="translate(-23.73 -25.97)"/>
  </g>
  <polygon class="cls-1" points="722.85 0 629.21 0 535.57 0 535.57 93.64 535.57 187.28 629.21 187.28 722.85 187.28 722.85 93.64 722.85 0"/>
  <path class="cls-2" d="M705.08,112.59l-32.73-.09c-18,0-32.82,0-32.91.15a73.7,73.7,0,0,0-.21,7.73v7.52h24.38v69.26h17.24V127.9h24.38l-0.06-7.67Z" transform="translate(-23.73 -25.97)"/>
  <path class="cls-2" d="M613,112.38a23.31,23.31,0,0,1,11.71,6.75c1.72,1.84,4.28,5.2,4.49,6,0.06,0.24-8.09,5.71-13,8.77-0.18.12-.89-0.65-1.69-1.84-2.41-3.51-4.93-5-8.8-5.29-5.68-.39-9.33,2.59-9.3,7.55a6.87,6.87,0,0,0,.8,3.51c1.25,2.59,3.57,4.13,10.85,7.28,13.41,5.77,19.14,9.57,22.71,15,4,6,4.88,15.67,2.17,22.83-3,7.79-10.34,13.08-20.72,14.83a57.42,57.42,0,0,1-14.27-.15c-7.52-1.34-14.66-5.05-19.06-9.93-1.72-1.9-5.08-6.87-4.88-7.22a14,14,0,0,1,1.72-1.1l7-4,5.38-3.12,1.13,1.66a25.14,25.14,0,0,0,7.1,6.81c6,3.15,14.18,2.71,18.22-.92a8.14,8.14,0,0,0,1-10.37c-1.46-2.08-4.43-3.83-12.87-7.49-9.66-4.16-13.82-6.75-17.63-10.85a24.7,24.7,0,0,1-5.14-9.36,37.5,37.5,0,0,1-.33-12c2-9.33,9-15.84,19.2-17.78A47.44,47.44,0,0,1,613,112.38Z" transform="translate(-23.73 -25.97)"/>
</svg>
